<?xml version="1.0" encoding="UTF-8"?>
<svg width="24px" height="24px" viewBox="0 0 24 24" version="1.1" xmlns="http://www.w3.org/2000/svg" xmlns:xlink="http://www.w3.org/1999/xlink">
    <!-- Generator: Sketch 52.2 (67145) - http://www.bohemiancoding.com/sketch -->
    <title>icons_filled_pay</title>
    <desc>Created with Sketch.</desc>
    <g id="icons_filled_pay" stroke="none" stroke-width="1" fill="none" fill-rule="evenodd">
        <g id="icon19" fill="#000000" fill-rule="nonzero">
            <path d="M10.5857864,13.8284271 L16.2426407,8.17157288 L17.6568542,9.58578644 L12,15.2426407 L11.2928932,15.9497475 C10.9023689,16.3402718 10.2692039,16.3402718 9.87867966,15.9497475 L6.34314575,12.4142136 L7.75735931,11 L10.5857864,13.8284271 Z M8,6 L4,6 L4,9 L2,9 L2,5 C2,4.44771525 2.44771525,4 3,4 L8,4 L8,6 Z M16,6 L16,4 L21,4 C21.5522847,4 22,4.44771525 22,5 L22,9 L20,9 L20,6 L16,6 Z M8,18 L8,20 L3,20 C2.44771525,20 2,19.5522847 2,19 L2,15 L4,15 L4,18 L8,18 Z M16,18 L20,18 L20,15 L22,15 L22,19 C22,19.5522847 21.5522847,20 21,20 L16,20 L16,18 Z" id="Combined-Shape"></path>
        </g>
    </g>
</svg>