<?xml version="1.0" standalone="no"?>
<!DOCTYPE svg PUBLIC "-//W3C//DTD SVG 1.1//EN" "http://www.w3.org/Graphics/SVG/1.1/DTD/svg11.dtd">
<svg t="1573115317005" class="icon" viewBox="0 0 1024 1024" version="1.1" xmlns="http://www.w3.org/2000/svg" p-id="1278" width="32" height="32" xmlns:xlink="http://www.w3.org/1999/xlink">
    <defs></defs>
    <path d="M282.453333 460.373333c61.44 120.746667 160.426667 219.733333 281.173334 281.173334l93.866666-93.866667c11.946667-11.946667 28.586667-15.36 43.52-10.666667 47.786667 15.786667 98.986667 24.32 152.32 24.32a42.666667 42.666667 0 0 1 42.666667 42.666667V853.333333a42.666667 42.666667 0 0 1-42.666667 42.666667A725.333333 725.333333 0 0 1 128 170.666667a42.666667 42.666667 0 0 1 42.666667-42.666667h149.333333a42.666667 42.666667 0 0 1 42.666667 42.666667c0 53.333333 8.533333 104.533333 24.32 152.32 4.693333 14.933333 1.28 31.573333-10.666667 43.52l-93.866667 93.866666z" fill="#000000" p-id="1279"></path>
</svg>